<?xml version="1.0" encoding="utf-8"?>
<svg viewBox="0 0 432 501" style="" xmlns="http://www.w3.org/2000/svg">
  <g id="g8" transform="matrix(1.334375023841858, 0, 0, -1.3333330154418945, -117.04048156738281, 583.3333740234375)">
    <g id="g10" transform="scale(0.1)">
      <path d="m 1534.9,2894.7 c 0.2,13.1 -1.1,25.9 -2.5,38.8 -8.3,77.9 -37.2,147.8 -85.5,208.8 -36.6,46.2 -86.3,69.4 -145.6,70.5 -56.3,1.1 -104.1,-19.8 -144.4,-58.2 -12.3,-11.7 -24.9,-22.7 -39.5,-31.6 -20.1,-12.4 -36.8,-28.6 -51.7,-47 -48.4,-59.9 -71.798,-129.1 -76.7,-205.1 -0.898,-13.4 -2.801,-26.7 -1.699,-40.3 2.301,-27.8 10.695,-53.5 23.699,-78 11.2,-21.1 21.7,-42.6 31,-64.7 25.4,-60.7 30.2,-122.2 8.6,-185.1 -6.3,-18.4 -11.3,-37.1 -14.4,-56.4 -4.6,-29.3 5.9,-51.7 29,-68.9 18.2,-13.6 38.3,-23.2 60.1,-29.3 21.8,-6 43.8,-5.8 64.7,2.7 50.7,20.5 97.9,46.7 134.1,89.4 44.6,52.5 82,110.3 121.9,166.2 2.3,3.2 4.2,6.8 6,10.3 24.1,46 45.2,93.3 61.2,142.7 14.2,43.7 19.6,89.3 21.7,135.2 z m 197.7,19 c 4.9,4 4.1,7.9 -1.7,9.7 -7.7,2.5 -15.7,2.7 -23.7,1.9 -18.7,-2 -35.7,-8.6 -51.5,-18.5 -12.8,-8 -15.2,-6.7 -16.3,7.7 -1.9,25.4 2.3,49.7 14.2,72.3 13.1,25.2 26.8,50.1 45.8,71.5 2,2.2 3.8,4.6 5.6,7.1 1.4,2 2.5,4.4 0.6,6.7 -1.4,1.7 -3.6,1.9 -5.5,1.3 -3.8,-1.2 -7.6,-2.5 -11.2,-4.2 -12.2,-5.9 -23.3,-13.6 -32.9,-23.1 -46,-45.2 -68,-97.6 -46.8,-162.2 2.8,-8.3 0.9,-13.7 -4.4,-20.1 -25.2,-30.7 -37.4,-66.4 -39.1,-104.5 0.9,-36.1 10.8,-68.1 27.6,-98.1 2.4,-4.3 5.6,-8.2 9.1,-11.8 3.9,-4 8.7,-7.2 14.6,-4.2 5.6,2.8 4.8,8.3 4,13.2 -3.3,19.7 -4.9,39.5 -6.5,59.3 -3.8,46.1 7.8,87.8 34,125.6 18.6,26.8 44.4,45.4 71.5,62.4 4.2,2.7 8.8,4.9 12.6,8 z m 184.8,-648.1 c 0.2,10 -0.7,19.9 -1.5,29.9 -4.4,51.8 -15.9,102.2 -28.7,152.5 -16.4,65.2 -52.2,118.9 -96.9,167.6 -13.1,14.3 -30,22.9 -48.2,28.8 -19.6,6.4 -38.9,4.1 -56.1,-6.7 -13.1,-8.2 -26.9,-15.1 -40.7,-22 -12.1,-6 -23,-13.7 -33.5,-22.3 -49.9,-41 -86.9,-91.5 -111.8,-151 -26.2,-62.5 -39.7,-127.3 -32.5,-195.3 3.5,-32.3 14.5,-62 34.5,-87.9 15.8,-20.4 36.3,-34 61.3,-40.3 21,-5.3 39.4,-0.4 54.8,15.2 8.5,8.6 15.2,18.4 21.1,28.9 8.4,14.7 16.8,29.4 25.4,44 2,3.4 4.4,6.6 7.1,9.6 2.9,3.3 6.3,3.2 8.4,-0.9 3,-5.7 5.6,-11.6 8.1,-17.6 11.6,-27.3 26.2,-52.5 48.3,-72.9 11.3,-10.4 24,-17.7 39.3,-20.3 27.6,-4.6 52.5,2.4 74.6,18.6 16.9,12.5 31.3,27.8 43.7,44.8 9,12.3 14.5,26.1 17.5,40.9 3.7,18.6 5.2,37.5 5.8,56.4 z m 90.4,-69.5 c 6.6,23.8 7,48.2 5.4,72.6 -2.6,38.7 -12.8,75.4 -31.7,109.4 -3,5.3 -6.1,10.4 -10.9,14.1 -1.6,1.2 -3.5,2.2 -5.5,1 -1.9,-1.1 -2.9,-3 -2.4,-5 1.5,-5.7 3,-11.6 5.1,-17.1 10.5,-27.8 16.1,-56.4 14.8,-85 0.5,-24.2 -1.4,-47.1 -7.4,-69.2 -7.7,-28.2 -14.3,-57.3 -40.1,-76.1 -4.3,-3.1 -3.5,-7 0.7,-9.7 6.1,-3.9 12.9,-4.9 20,-3.1 12.2,3 21.5,10.3 28.9,19.9 11.2,14.4 18.3,30.7 23.1,48.2 z m 829.4,511.8 c -0.5,11.6 -1.5,29.5 -4.5,47.2 -8.2,49.4 -20.4,97.5 -47.4,140.7 -14.2,22.8 -29.3,45.1 -47,65.5 -82,94 -177,171.7 -286,232.9 -53.9,30.3 -110.9,51.5 -170.3,67.4 -10.6,2.8 -21.4,5.4 -32.4,5.5 -19,0 -37.7,2.8 -56.6,4.2 -30.3,2.3 -58.5,-3.8 -83.7,-21.3 -14.7,-10.3 -29,-21 -43.2,-32 -20.4,-15.8 -36.1,-35.7 -48.8,-58 -4.2,-7.3 -8.1,-14.9 -12.4,-22.1 -31.6,-53.7 -46.9,-111.8 -46.9,-173.9 0.1,-37.5 6,-74.5 11.9,-111.4 17.6,-110.5 56.3,-212.5 123.2,-303 52.6,-71.1 115,-130.8 196.6,-168.1 86.7,-39.7 176.6,-50 269.8,-29.2 77,17.3 141.7,57.5 199.4,109.6 30.4,27.5 49,62.6 58.7,102.3 11,45.1 17.9,90.9 19.6,143.7 z m 1202.7,247.8 c 5.9,-65 11.7,-130 11.4,-195.4 -0.8,-143.1 -35.6,-278.2 -94.7,-407.5 -38.3,-83.7 -85.6,-162.1 -145.2,-232.7 -45.1,-53.4 -94.8,-102.4 -148.5,-147.2 -34.4,-28.6 -72.7,-50.6 -114.1,-67.5 -15.7,-6.5 -32.1,-10.9 -48.9,-13.2 -12.8,-1.7 -15.2,1.3 -9.8,12.5 30.3,62.8 45.5,129.4 52,198.5 3.5,37.2 8.6,74.2 8.1,111.7 -0.1,6.5 -0.1,13 -2.2,19.2 -2.8,8.6 -8.6,13.5 -16,13.2 -8.1,-0.3 -12.7,-5.3 -15.1,-12.4 -2.4,-7.1 -3.7,-14.5 -6.2,-21.6 -6.6,-18.8 -14.7,-37 -24.4,-54.4 -39.7,-71 -80.6,-141.2 -128.6,-206.9 -10.3,-14.1 -21.1,-27.8 -31.7,-41.6 -36.5,-47.4 -87,-68.3 -144.4,-75 -19.8,-2.3 -39.9,-1.6 -59.8,-0.2 -7.4,0.5 -14.8,1.9 -22,3.8 -7.2,1.8 -8.3,4.6 -4.3,10.6 33.6,49.5 49.8,106.2 65.9,162.8 7.6,26.8 13.5,54.1 16.9,81.9 1,7.9 1.8,15.9 0.5,23.8 -1.6,9.5 -7,15.7 -14.5,17.1 -7.4,1.5 -14.4,-2.2 -19,-11.3 -5.4,-10.7 -10.3,-21.6 -14.8,-32.7 -5,-12.1 -11.9,-22.9 -21.1,-32.3 -34.4,-35.4 -65.7,-73.6 -100.6,-108.6 -21.5,-21.5 -44.2,-41.6 -67.3,-61.5 -48.9,-42 -106.6,-63 -169.5,-72.3 -14.3,-2.1 -28.7,-3.1 -43.2,-3 -13.3,0.2 -16.1,2.1 -18.4,14.5 -7.5,39.5 -4.1,78.4 6.9,116.8 2.2,7.4 6.7,11.9 14.1,14 6.7,1.9 13.3,4.1 20,6.1 18.2,5.3 35.7,12.5 52.3,21.9 77.8,43.9 150.6,95.4 223,147.6 40.1,28.9 72.2,65.2 98.3,107.3 21.2,34.4 43.1,68.2 60.6,104.8 27.6,57.7 41.3,119.3 51,182.1 7.5,49.4 10.4,99.2 10.5,149 0.2,48.7 -1,97.6 -4.9,146.3 -1.1,13.8 -3.5,27.7 -6.9,41.2 -13.5,53.7 -27.9,107.1 -46.4,159.3 -25.1,70.9 -66.2,131.3 -122.6,181.3 -0.8,0.6 -1.5,1.3 -2.3,2 -11,10.1 -11,11.3 0.7,19.9 12.5,9.3 23.7,19.8 34,31.3 19.4,21.8 32.1,46.7 37,75.5 6.5,38.1 8.1,76.3 2.3,114.6 -0.9,6.5 -2.2,12.8 -4.8,18.8 -1.3,3.2 -2.9,7.1 -6.9,6.9 -4.4,-0.1 -4.7,-4.3 -5.4,-7.8 -3.9,-21.5 -7.8,-43.1 -11.7,-64.7 -2.8,-15.7 -5.2,-31.4 -8.3,-47.1 -8.8,-44.6 -34.1,-77.8 -72.1,-101.9 -5.9,-3.8 -12,-7.2 -17.4,-11.5 -14.2,-11.2 -16,-25 -5.1,-39.1 4.3,-5.5 9.5,-10.3 14.8,-14.8 66.2,-56.8 111.1,-127.1 134,-211.3 9.8,-36.1 20.2,-72 30.1,-108.1 7.9,-29 11.2,-58.6 11.5,-88.6 1.3,-100.1 -13.4,-197.6 -44.6,-292.7 -10,-30.5 -23.3,-59.3 -41.3,-86 -24.2,-36 -50.7,-70.3 -78.2,-103.8 -37.3,-45.5 -82.2,-81.2 -136.3,-104.6 -45.3,-19.6 -89.8,-41 -134.6,-61.6 -23.6,-10.8 -48.1,-15.9 -74,-15.4 -16,0.4 -17.5,2.2 -12.2,17.8 6.7,19.3 13.8,38.4 20.5,57.7 3.8,10.8 7,21.9 8.4,33.3 0.6,4.7 3.1,10.8 -2.4,13.6 -6.1,3.1 -10.2,-2.3 -14,-6.1 -8.5,-8.4 -15.5,-18.1 -21.4,-28.6 -29.6,-53.2 -51.1,-109.2 -59.8,-169.7 -8.5,-59.6 -19.4,-118.9 -24.6,-179.1 -2.5,-28.8 -8.7,-57.1 -16.5,-85 -6.3,-22.5 -18.2,-42 -30.7,-61.2 -1.9,-2.9 -4.3,-5.5 -6.9,-7.9 -7.1,-6.6 -10.3,-6.9 -18.4,-1.8 -7.7,4.9 -13.2,12.1 -19.7,18.3 -23.1,21.8 -50.3,29.5 -81.3,22 -17.8,-4.3 -31.1,-15.5 -42.2,-29.4 -5.9,-7.3 -10.9,-15.5 -16.7,-22.9 -6.1,-7.7 -8.9,-7.8 -15.3,-0.5 -12.8,14.7 -25.9,29 -39.8,42.6 -19,18.7 -40.6,25.1 -66.9,19.6 -32.4,-6.8 -58,-22 -76.4,-50.2 -15.3,-23.6 -10.7,-26.7 -39,-7.3 -11.9,8.2 -23.1,17.4 -35.1,25.5 -17.2,11.8 -36,16.1 -56.8,11.5 -16.8,-3.7 -30.5,-11.8 -41.1,-25.3 -4.6,-5.9 -8.8,-12.2 -14,-17.5 -7.9,-8.1 -14.9,-8.2 -23.8,-1.1 -5,4 -9.7,8.5 -14.6,12.7 -15,12.9 -32.3,18.4 -52.1,19.2 -43.5,1.7 -79.6,-15.4 -112.4,-41.4 -16.9,-13.4 -28.3,-14.4 -45.3,-1.4 -9.5,7.3 -18.8,14.8 -28.4,22 -10.8,8.1 -22.5,14.6 -34.6,20.6 -27.5,13.6 -55,11.3 -82.8,2 -13.2,-4.5 -23.1,-13.4 -32,-23.8 -6.5,-7.6 -12.9,-15.3 -19.9,-22.3 -7.8,-7.8 -9.6,-7.7 -16.7,0.6 -15.2,17.5 -33.6,31 -53.3,43 -21.6,13 -43.9,14.9 -67.4,6.5 -18.6,-6.7 -35.6,-15.7 -49.9,-29.3 -20.7,-19.6 -31.9,-23.2 -53.3,1.2 -8.9,10.2 -20.1,17.5 -33.1,22.3 -19.1,7.1 -37.8,7.5 -56.6,-1.1 -13.3,-6.1 -14.5,-5.2 -17.5,9.4 -4.8,22.6 -5.5,45.4 -4.1,68.4 6.2,100.6 20.9,200.1 39,299.2 9.4,52.2 10.4,103.9 1.3,156 -2.2,12.7 -2.8,25.7 -4.1,38.6 -0.4,3.4 -0.1,7.5 -4.8,7.9 -4.2,0.3 -6.3,-2.9 -7.3,-6.3 -3.7,-12.5 -5,-25.4 -5.4,-38.4 -0.7,-27.4 -1.3,-54.8 -6,-81.9 -6.8,-39.3 -19.5,-77.3 -28.2,-116.2 -1.8,-8.1 -4.2,-8.5 -11.7,-3.9 -55,34.1 -98.3,79.3 -128.3,136.8 -22.702,43.3 -42.901,87.6 -52.596,136.2 -10.504,52 -7.5,102 19.094,149.2 4.199,7.4 7.402,15.3 11.601,22.6 22.301,39.1 26.201,81 19.801,124.5 -4.2,28.7 -10.801,56.8 -18.5,84.7 -18.602,66.7 -27.598,134.6 -25.5,203.9 5.301,168.7 30.301,334.5 82.8,495.1 51.1,156.1 131.4,296.5 238.3,421.7 115.4,135.1 249.4,247.6 404.8,334.1 64.9,36.2 131.5,69.1 201.5,94.7 62.5,22.8 126.6,38.6 192.7,46.5 48.5,5.8 97,11.7 145.5,16.7 22.3,2.3 44.7,3.5 67.1,4 72.3,1.6 144.6,-1.3 216.8,-3.6 72.7,-2.2 144.9,-11.4 217,-21.6 64.1,-9.1 128.2,-18.5 191.1,-34.3 72.7,-18.3 144,-40.1 212.3,-71.5 9.7,-4.5 16,-10.5 20.2,-20.3 2.1,-4.9 4.1,-9.9 6,-14.8 19.4,-48.5 32,-98.7 37.2,-150.9 2,-20.8 4.3,-41.6 5.8,-62.5 1.6,-22.5 10.2,-39.8 31,-50.9 17,-9 29.4,-23.6 41.2,-38.6 6.3,-8.1 9.5,-17.5 11,-27.5 7.1,-45.6 21.8,-88.8 40,-131.1 23,-53.1 46.8,-105.7 74.5,-156.5 16.1,-29.5 23.7,-62.3 32.6,-94.5 3.3,-11.7 6.2,-23.6 9,-35.5 2.8,-11.9 5.4,-23.8 8.2,-35.7 3,-12.7 7.4,-24.8 13.3,-36.4 12.5,-24.7 17.7,-50.1 11.9,-78.1 -4.5,-21.5 -8.9,-42.8 -17.9,-63 -12.3,-27.5 -14.6,-56.8 -12.5,-86.5 1.2,-17.5 9.7,-32.3 20.9,-45.4 8.4,-9.8 17.2,-19.4 26.1,-28.8 24.5,-25.8 37.8,-55.5 34.3,-92.1 -1.8,-19.8 -0.6,-39.8 2.1,-59.6 2.1,-15.6 6.6,-30.2 15.5,-43.2 9.1,-13.3 15.5,-27.5 18.7,-43.6 3.3,-17.1 11.1,-33.1 19,-48.6 7.4,-14.7 14.3,-29.6 21.3,-44.4 10.8,-22.8 24.4,-43.6 43.9,-59.9 6.1,-5.1 13.2,-14.9 21.3,-8.5 6.2,4.8 -1.5,13.6 -3.8,20.3 -7.4,21.4 -18.7,40.6 -33.5,57.9 -10.3,12.2 -19.1,25.5 -25.4,40.3 -8,18.7 -11.7,38 -9.8,58.4 1,10.4 0.7,20.9 -1,31.3 -0.9,6 -0.4,11.8 0.1,17.8 2,26.4 1.9,52.8 0,79.2 -2.8,39.2 -17.5,74.4 -36.7,108 -4.4,7.7 -9.2,15.3 -14.8,24.5 3.9,0 5.5,0.4 6.8,0 22.9,-8 46.7,-9.7 70.8,-9 8.4,0.2 16.8,0.3 25.2,-2.2 7,-2.1 12.7,-5.4 16.4,-11.9 8.1,-13.8 20.1,-23.2 34.5,-29.8 3.6,-1.7 7.4,-3.2 10.5,-5.7 40.8,-32.6 90.1,-43.2 139.5,-53.4 9.8,-2.1 19.8,-1.8 29.8,-1.3 3.4,0.2 7.5,0.1 9,4 1.8,4.7 -2.1,7.3 -5.1,9.8 -8.2,6.7 -17.7,11.2 -27.6,14.7 -17.8,6.2 -35.8,12.2 -53.9,17.9 -21.5,6.7 -40.2,17.1 -53.1,36.5 -2.4,3.7 -5.5,7.2 -8.9,10 -12.4,10.3 -22.6,22.3 -30.7,36.2 -5.4,9.3 -14.2,15 -23.6,20.1 -24.1,13 -50.5,14.3 -76.8,16.6 -12.4,1 -24.8,2.4 -37.2,3.7 -13.8,1.4 -24.1,7.7 -31.2,20.1 -8.8,15.1 -15.9,29.9 -18.4,48.1 -3.8,28.1 -8.1,56.1 -10.6,84.4 -1.8,20.6 -8.9,40.1 -18.2,58.3 -10.1,19.8 -16.1,40.6 -21.1,62 -1,4.3 -2,8.5 -3.1,12.8 -7.9,33.5 -16.1,67.1 -24.2,100.6 -1.1,4.7 -3,9.4 -2.1,14.5 1,0.5 2.1,1.5 2.6,1.3 15.8,-7.7 32.7,-11.9 49.8,-15.3 10.9,-2.2 20.5,-7.9 29.6,-13.9 21.3,-14 42.4,-28.1 63.5,-42.3 30.6,-20.6 62.2,-39.6 96.3,-54.2 5,-2.1 11.8,-7.5 15.8,-1.1 3.3,5.4 -3.9,9.5 -7.7,13 -37.2,33.9 -72,70.4 -111.9,101.3 -12.6,9.8 -25.2,19.6 -38.9,27.8 -14.7,8.9 -30.5,14.7 -47.8,15.7 -19.5,1.2 -35.6,8.8 -48,24 -11.3,13.9 -22.6,27.8 -33.8,41.8 -3.8,4.8 -5.4,10.7 -7.3,16.3 -21.6,63.7 -48.8,125.4 -71.6,188.7 -13.7,37.9 -40.3,65.2 -73.4,85.8 -14.4,9 -20.7,19.9 -22.8,35.7 -3.5,26.1 -7.5,52.2 -12.1,78.2 -7.5,43 -21.5,84 -39,123.8 -1.2,2.8 -3,5.4 -4.2,8.3 -0.6,1.7 -1.1,3.6 -1.1,5.6 4.4,2.3 7.6,-0.8 11.1,-2.3 61.6,-26.2 119.5,-59.5 175.6,-95.8 118.4,-76.6 222.2,-170.1 316.5,-274.4 36.5,-40.3 72.3,-81.2 104,-125.4 9,-12.6 17.1,-25.8 25,-39 13.7,-22.6 26.1,-46 40.6,-68.1 37.2,-56.6 63.3,-118.5 86.3,-181.8 22.9,-62.8 46.6,-125.2 61.8,-190.4 17.9,-76.8 31.5,-154.2 38.7,-232.7" style="fill: rgb(255, 255, 255); fill-opacity: 1; fill-rule: nonzero; stroke: rgba(186, 218, 85, 0);" id="path14"/>
      <path d="m 3162.5,1524.9 c 19.9,-50 32.4,-101.3 30.5,-155.7 -1.2,-34.4 0.5,-68.8 -0.1,-103.2 -0.3,-19.9 -2.1,-39.8 -4,-59.6 -3.7,-39.2 -16.4,-75.5 -33.8,-110.8 -23.8,-48.4 -48,-96.299 -80.5,-139.6 -13,-17.301 -27,-33.199 -43.4,-47.199 -30.3,-25.903 -61.1,-51.199 -93.9,-73.903 -42.4,-29.398 -87.3,-54 -135.7,-72 -50.4,-18.796 -99.9,-40.296 -152.7,-51.898 -52.1,-11.301 -105,-18 -158.2,-22.098 -94.5,-7.402 -189.2,-7.902 -283.9,-5.601 -82.3,2.097 -163.7,14 -244.2,31.597 -54,11.704 -107.8,24.801 -161.5,37.704 -25.3,6 -49.7,14.5 -73.2,25.796 -53.9,25.801 -108.3,50.704 -161.3,78.403 -27.9,14.601 -54.8,30.699 -79.8,49.801 -26.6,20.199 -53,40.597 -79.6,60.898 -22.3,17 -41.2,37.6 -60.2,58 -16,17.1 -31.6,34.5 -47.2,52 -19.6,22.2 -36.1,46.6 -49.3,72.9 -11.7,23.1 -14.2,48.5 -14.7,74.1 -0.1,5.1 1.8,9.8 4.3,14.2 6,10.8 13.2,13.8 24.9,9.8 4.6,-1.6 9,-4.2 13.3,-6.6 36.1,-20.2 78.6,-9 99.8,26.4 7.5,12.4 12.5,14.1 25.7,8.8 9.9,-4 17.8,-10.9 25.6,-17.9 9.7,-8.7 20.3,-15.9 33.1,-19.5 26,-7.3 48.7,0.7 64.1,22.8 3.7,5.3 7.2,10.7 12.2,15 9.2,7.8 16.8,7.5 24.6,-1.5 2.9,-3.4 5.2,-7.3 7.5,-11.2 7.2,-12 15.6,-23.1 24.2,-34.1 11.9,-14.9 27.4,-20.3 46.2,-19 25.6,1.8 47.7,9.5 63.5,31.1 5,6.8 11.6,12.4 18.6,17.1 9.9,6.7 15.3,6.6 23.7,-2.3 12.6,-13.4 26.5,-25.7 37.5,-40.6 11.9,-16.1 27.3,-21.7 47.1,-18.7 20.2,3 40.2,6.7 59.7,13.1 17.8,5.8 31.7,16.3 41.4,32.5 5.4,8.9 10.4,18.2 18.1,25.5 14.7,14 28.7,12.3 36.8,-6.1 17.7,-39.9 49.4,-58.3 91.1,-62.6 21.3,-2.1 40.3,5.1 58.5,14.9 7.4,4 14.2,9.2 21.1,14.1 11.3,7.9 14.2,8.3 25.1,-0.2 9,-7 18.6,-14 25.5,-22.9 25.1,-32.2 80.2,-26.8 104.7,-6.3 11.9,9.9 23.7,19.8 34.8,30.6 16.1,15.8 25.8,16.7 45,4.6 8.8,-5.5 17.7,-11.2 25.8,-17.8 26.2,-21.2 64.9,-19.8 91.7,0.6 6.4,4.8 12.3,10.1 18.2,15.5 4.8,4.3 8.6,5.7 13.9,0.2 11.7,-12.3 26.9,-20.4 39.1,-32.4 6.8,-6.7 15.9,-9.9 25.4,-11.7 17.4,-3.3 34.6,-2.9 52,-0.1 69.3,11.2 127.5,41.3 170.4,98.1 14.7,19.5 30.3,38.3 44.8,57.9 33.8,45.7 56,97.5 78.1,149.4 16.8,39.6 30.6,80.1 36.8,122.8 2.6,18.2 4.9,36.5 4.8,55 -0.1,9 0.5,17.9 3.5,28.5 2.7,-2.4 4,-3.1 4.8,-4.3 27.3,-42.1 61.3,-78.4 98.1,-112.3 16.8,-15.5 32.7,-32.2 51.4,-45.6 5,-3.7 8,-8.7 10.2,-14.4" style="fill: rgb(255, 255, 255); fill-opacity: 1; fill-rule: nonzero; stroke: rgba(186, 218, 85, 0);" id="path16"/>
      <path d="m 2612.9,2428.1 c 6.5,-10.4 6,-12.9 -5.7,-17.6 -27.9,-11 -57,-17.8 -86.7,-22.3 -18.3,-2.8 -36.6,-4 -55.2,-4.2 -90.9,1.8 -171.6,31.2 -241.4,90 -105,88.3 -168.3,201.6 -201,333.5 -10.5,42.1 -19.1,84.6 -23.5,127.8 -6.4,62.4 4.7,121.9 30.4,179.1 16.5,36.7 36.7,69.5 73.2,89.7 8.6,4.8 16.3,11.4 24.4,17.1 7.1,4.9 14.9,8.2 23.1,10.4 12.3,3.4 14.7,1.3 12.9,-11.1 -8.8,-58.4 -8.5,-117.2 -8.1,-176 0.2,-31.6 5.3,-62.5 14.4,-92.7 7.8,-26.3 17.3,-52 27.3,-77.6 13.3,-34.2 37.4,-54.2 73.8,-59.7 13.3,-2 26.4,-5.1 39.4,-8.8 31.9,-9.1 54,-28.8 66.5,-59.5 6.3,-15.3 10.5,-31.2 14.5,-47.1 8.4,-34.4 19.9,-67.9 32.7,-100.9 8.8,-22.7 21.8,-42.6 39.1,-59.5 22.5,-21.9 45.1,-43.7 72.5,-59.8 13.8,-8.2 28.5,-14.2 43.1,-20.7 14.6,-6.6 25.7,-16.8 34.3,-30.1" style="fill: rgb(255, 255, 255); fill-opacity: 1; fill-rule: nonzero; stroke: rgba(186, 218, 85, 0);" id="path18"/>
      <path d="m 2516,1656.5 c 12.5,-1.7 13.5,-3.1 12.9,-17.5 -5,-30.8 -10.2,-64.3 -24,-95.6 -2.4,-5.4 -5.7,-10.5 -9.3,-15.2 -9.6,-12.8 -22,-17.6 -38,-13.4 -20.6,5.3 -37.4,16.4 -50,33.2 -19.2,25.9 -30.6,55.7 -41.8,85.5 -1.7,4.5 -1.6,8.8 1.8,12.6 9.9,10.7 16.2,23.8 23.9,35.9 18.7,29.2 48.5,32.1 72.3,6.9 9.7,-10.3 19.8,-19.6 32.5,-26 6.2,-3.2 12.6,-5.5 19.7,-6.4" style="fill: rgb(255, 255, 255); fill-opacity: 1; fill-rule: nonzero; stroke: rgba(186, 218, 85, 0);" id="path20"/>
      <path d="m 2528.4,1300.4 c 2.6,-14.7 -0.1,-17.8 -11.3,-22.3 -9.4,-3.7 -16.7,-10.7 -24.6,-16.9 -19.5,-15.2 -34.8,-16 -56.3,-3.7 -10.8,6.1 -21.5,12.6 -32.8,17.7 -8.5,3.8 -12.9,8.7 -11.1,18.2 0.6,2.9 0.4,6 0.4,6.2 0.7,24.9 4.4,46.4 15.4,66 6.8,12.4 15.4,23.3 26.8,31.7 18.4,13.5 37.8,12.2 54,-3.6 10.2,-9.8 18.1,-21.2 23.4,-34.3 7.7,-19.1 12.6,-38.9 16.1,-59" style="fill: rgb(255, 255, 255); fill-opacity: 1; fill-rule: nonzero; stroke: rgba(186, 218, 85, 0);" id="path22"/>
      <path d="m 2341,1310.4 c 4.4,-19.7 4.5,-34.3 -15.8,-46.2 -13.4,-7.8 -24.1,-20.7 -37.2,-29.8 -8.3,-5.9 -17.2,-10 -28.3,-9.3 -9.7,-1.4 -17.7,2.9 -25.1,9.5 -13.3,12.1 -26.7,24 -43,32.1 -5.6,2.7 -7.9,7.3 -7.9,13.3 0.1,12.5 -2.2,24.8 -4.1,37.1 -1.2,8.1 0.4,16 2.2,23.7 6.7,29.2 16.6,57.4 28.1,85 6.5,15.4 17,26.7 33.1,32.5 16.9,6.2 31.2,2.6 43.5,-10.3 10.1,-10.6 17,-23.3 23,-36.5 14.7,-32.4 23.7,-66.5 31.5,-101.1" style="fill: rgb(255, 255, 255); fill-opacity: 1; fill-rule: nonzero; stroke: rgba(186, 218, 85, 0);" id="path24"/>
      <path d="m 2317.9,1640.9 c 6.2,-4.2 8.3,-9.1 6,-16.6 -4,-12.8 -6.9,-26 -10.9,-38.8 -4.5,-14.6 -12.2,-27.3 -24.3,-36.9 -8.5,-6.8 -17.9,-10.8 -29.1,-10.2 -23.2,3.9 -44.1,12.1 -57.6,33.1 -13.7,21.6 -22,45.7 -32.3,68.9 -2,4.5 -1.3,8.6 1.6,12.6 6.7,9.3 12.9,19 19.6,28.2 11.5,15.9 27.6,23.8 46.6,27 10.3,1.8 18.5,-0.8 25.7,-8.1 13.3,-13.5 26.2,-27.3 38.2,-42 5.1,-6.2 9.9,-12.6 16.5,-17.2" style="fill: rgb(255, 255, 255); fill-opacity: 1; fill-rule: nonzero; stroke: rgba(186, 218, 85, 0);" id="path26"/>
      <path d="m 2146.5,1278.5 c 2.6,-12.5 1.7,-14.3 -9.5,-20 -22.1,-11.2 -44.7,-19.7 -70.2,-13.3 -20.3,5.2 -36.7,14.9 -46,34.7 -6.3,13.4 -16,24.5 -29.6,30.4 -11.5,5.1 -16.7,11.9 -14.8,19.6 3.9,39.6 12.1,73.3 26.9,105.2 9.6,20.7 25.2,35.4 46.2,44.6 9.8,4.2 18.1,2.9 26.2,-4 17.6,-14.8 29.8,-33.2 37.4,-54.8 5.1,-14.6 9,-29.5 12.2,-44.6 7.1,-32.6 14.4,-65.1 21.2,-97.8" style="fill: rgb(255, 255, 255); fill-opacity: 1; fill-rule: nonzero; stroke: rgba(186, 218, 85, 0);" id="path28"/>
      <path d="m 2130.1,1634 c 9,-1.6 11.1,-5.1 9.4,-13.7 -3.9,-18.5 -8.5,-36.8 -18.7,-53.1 -11.5,-18.5 -29.5,-28.9 -53,-28.7 -17.9,1 -36.9,8.3 -52.3,24 -21.2,21.5 -32.7,48.3 -42.1,76.3 -1.8,5.7 -0.3,9.7 4.4,12.8 10,6.8 17.6,16 25,25.4 13.1,16.8 30.3,20 48.6,9.3 4.2,-2.5 8.1,-5.7 12,-8.8 10.5,-8.3 20.8,-16.9 31.3,-25.2 10.6,-8.4 21.6,-15.7 35.4,-18.3" style="fill: rgb(255, 255, 255); fill-opacity: 1; fill-rule: nonzero; stroke: rgba(186, 218, 85, 0);" id="path30"/>
      <path d="m 1932.5,1318.2 c 2,-7.1 0.8,-12.5 -5.2,-17.1 -10.9,-8.3 -19.2,-18.8 -26.6,-30.1 -5.8,-8.7 -13.5,-14.3 -23.7,-16.9 -15.4,-4.1 -30.9,-8.1 -48.1,-8.8 -6.4,-1 -12.3,1.9 -17.5,7.3 -11,11.6 -23.4,21.6 -33.7,33.9 -6.1,7.4 -13.4,13.4 -22.2,17.3 -5.7,2.5 -7.3,6.7 -4.8,12.1 18.3,41.4 32.7,84.9 67.6,116.7 7.4,6.7 13.6,14.6 20.5,21.7 8.6,8.7 13.2,9.5 24,4.3 9.1,-4.4 16.4,-11.2 23,-18.8 14.3,-16.5 23.5,-35.8 29.6,-56.6 6.3,-21.5 11.3,-43.3 17.1,-65" style="fill: rgb(255, 255, 255); fill-opacity: 1; fill-rule: nonzero; stroke: rgba(186, 218, 85, 0);" id="path32"/>
      <path d="m 1925.7,1650.9 c 2.6,-2.6 1.5,-6.6 0.7,-10 -4.3,-18.9 -8.2,-37.9 -14.7,-56.3 -6.5,-18.3 -17.3,-33.5 -32.8,-45.3 -9.4,-7.1 -20.1,-10.8 -32.2,-11.3 -26.8,2.2 -50,11.6 -64.9,35.9 -9.7,15.7 -17.9,32.2 -26,48.7 -4.4,8.9 -4.1,10.2 4.2,13.7 10.9,4.4 19.4,11.8 28.3,19 27.6,22.2 58.2,35.9 94.7,33 19.4,-1.5 30.8,-14.8 42.7,-27.4" style="fill: rgb(255, 255, 255); fill-opacity: 1; fill-rule: nonzero; stroke: rgba(186, 218, 85, 0);" id="path34"/>
      <path d="m 1814.7,2155.1 c 4.4,-8 3.4,-10 -5.3,-12.8 -5.8,-1.9 -11.7,-2.5 -18.6,-2.5 -14.6,-0.5 -27.1,5.9 -37.7,16.6 -9.5,9.6 -17.4,20.6 -23.6,32.6 -6.7,12.7 -13.2,25.7 -19.3,38.7 -4.5,9.5 -3,12.4 7.2,14.3 21,4 39.5,0.3 53.6,-17.5 7.1,-9 14.1,-18.1 19.9,-28 8.1,-13.7 16.1,-27.5 23.8,-41.4" style="fill: rgb(255, 255, 255); fill-opacity: 1; fill-rule: nonzero; stroke: rgba(186, 218, 85, 0);" id="path36"/>
      <path d="m 1696,1637.5 c 4.4,-3.4 5.9,-7.5 4.5,-13 -4.8,-20.4 -8.9,-40.9 -14.1,-61.1 -6.2,-23.9 -20,-43.2 -39.1,-58.6 -17.4,-14 -29.2,-15 -47.3,-1.7 -27.7,20.4 -50.1,45.4 -61,79.1 -1.2,3.8 -2.4,7.6 -3.5,11.4 -10,35.4 -9.9,35.4 16.6,59.9 4.4,4.1 9.1,8 12.8,12.6 12.7,16 30.4,19.5 50.1,20.6 12.6,-0.5 24.5,-5.8 35.1,-13.4 15.7,-11.3 30.6,-23.9 45.9,-35.8" style="fill: rgb(255, 255, 255); fill-opacity: 1; fill-rule: nonzero; stroke: rgba(186, 218, 85, 0);" id="path38"/>
      <path d="m 1696.4,1304.9 c 3.1,-4.9 1.2,-8.5 -2.9,-11.5 -10.9,-8 -19.9,-17.9 -28.9,-28 -6,-6.7 -10.3,-7.7 -22.3,-7.8 -7,-1 -12.8,2.1 -17.2,8.4 -6.6,9.3 -13.5,18.5 -20.1,27.8 -9,12.8 -19.3,24.2 -34.3,30.1 -7.9,3.2 -10.1,9 -8.7,16.7 6.3,35.5 21.6,66 49.3,89.7 1.1,1 2.4,1.8 3.6,2.7 21.3,14.5 31.9,12 44.1,-10.5 11.7,-21.8 17.3,-45.5 22.3,-69.4 3.5,-16.6 5.9,-33.4 15.1,-48.2" style="fill: rgb(255, 255, 255); fill-opacity: 1; fill-rule: nonzero; stroke: rgba(186, 218, 85, 0);" id="path40"/>
      <path d="m 1637.3,2575.4 c 2.3,2.4 4.4,5.5 10.4,6.1 -6.5,-10.6 -12,-19.4 -17.3,-28.4 -24.9,-42 -37.6,-87.6 -40.6,-136.2 -1.4,-22.9 -3.5,-45.7 -3.2,-68.6 0.4,-43.9 11.8,-84.8 34.9,-122 5.9,-9.5 6.6,-16.6 0.1,-25.5 -7.9,-10.9 -13.7,-23.2 -22.5,-33.5 -12.3,-14.2 -19.8,-15.5 -36.5,-6.4 -17.4,9.6 -28.3,24.8 -36.1,42.5 -12.4,27.9 -16.6,57.4 -15.1,87.6 3,63.6 19.5,123.7 48.6,180.5 19.9,39 47.2,72.5 77.3,103.9" style="fill: rgb(255, 255, 255); fill-opacity: 1; fill-rule: nonzero; stroke: rgba(186, 218, 85, 0);" id="path42"/>
      <path d="m 1289.2,1630.3 c 1.4,7 -0.4,11.6 -7.2,14.1 -8.1,2.9 -15.3,7.2 -21.6,13 -5.4,5.1 -10.6,10.6 -16.3,15.4 -16.3,13.6 -30.8,14.6 -49,3.4 -6.4,-4 -12.8,-7.9 -20.5,-8.2 -8.9,-0.4 -12.1,-5.5 -12.6,-13.5 -0.6,-11.4 -1.1,-22.8 -1.6,-34.2 0.2,0 0.5,0 0.8,0 0,-9 -0.4,-18 0,-26.9 1.8,-33.9 14.3,-61.5 45.6,-78.5 13.1,-7.1 16.5,-7.4 27.5,3 2.2,2 4.3,4.1 6.2,6.4 25.6,31 40.6,66.9 48.7,106 z m 60.4,-332.3 c 6,6.7 5,13.1 0.6,20.4 -12.7,21.4 -24.9,43.1 -37.3,64.6 -9.7,16.9 -19.9,33.4 -32.4,48.3 -6.4,7.7 -13.1,15 -20.8,21.5 -8.9,7.4 -18.7,8.9 -29.2,4.5 -21.5,-9 -34.6,-24.3 -36.7,-48.3 -3.6,-42 8.4,-78.6 36,-110.4 4.5,-5.2 9.2,-8.7 16.5,-8.3 16.9,0.8 32.4,-3.9 47.1,-12 5.8,-3.3 12,-4.8 18.2,-3.8 22.5,1.1 25,2.6 36.4,21 0.5,0.9 0.9,1.8 1.6,2.5 z m 39,153.9 c 4.6,7 3.7,8.5 -5.4,13.3 -32.8,17.5 -56.1,43.7 -71.4,77.4 -1.8,3.9 -2.1,8.8 -8.2,11.6 -0.5,-0.9 -1.3,-2.1 -1.9,-3.5 -8,-16.5 -16.6,-32.8 -27.8,-47.5 -4.4,-5.8 -2.8,-9.7 2.7,-13.5 12.3,-8.7 22.6,-19.4 32.2,-30.9 17.9,-21.5 32.5,-45.2 45.9,-69.6 2,-3.6 2.6,-8.6 8.1,-9.8 0.7,1.6 1.8,2.8 1.9,4.2 3.2,24.4 10.1,47.5 23.9,68.3 z m 89,159.2 c 3.5,16.5 -1,28.3 -12.5,38.5 -14.1,12.5 -29,24.2 -44.9,34.4 -6.1,3.9 -12.5,6.3 -18.9,5.8 -14.3,0 -30.7,-7.3 -43.4,-19.1 -6.9,-6.5 -12.9,-14.2 -21.3,-18.6 -12.8,-6.8 -15,-17.6 -13.5,-30.3 0.7,-5.4 1.7,-10.8 3,-16.1 8.5,-34.4 22,-66 49.6,-90 27.3,-23.8 44.3,-21.8 64.6,8.2 17.9,26.6 30.7,55.4 37.3,87.2 z m 24,-309.7 c 5.9,6.2 7.3,12.2 4.1,20.2 -6.5,16.2 -10.3,33.3 -14.6,50.2 -2.9,11.6 -6.2,23.1 -10.9,34.1 -5.8,13.5 -13.8,25.4 -25.6,34.3 -10.8,8.2 -16.5,7.9 -26.4,-1.1 -10.9,-10.1 -17.2,-23 -21.7,-36.9 -5.5,-16.8 -7.2,-34.1 -8.7,-51.6 0,-7 0.2,-14 0,-20.9 -0.3,-7.4 2.5,-12.3 9.7,-14.8 17.4,-6 31.4,-17 44.3,-29.8 3.9,-3.8 8.2,-7.3 12.9,-10 8.5,-5.1 11.3,-4.3 17.7,3.3 6.5,7.6 12.3,15.8 19.2,23 z m 33.2,74.6 c 14,33.3 27.3,63.3 56.9,84.8 -44.1,30.4 -76.2,66.9 -88.7,118.2 -9.7,-30.8 -20.7,-60 -38.5,-86.2 -4,-5.8 -1,-9 4.1,-11.7 31.5,-17 48.3,-44.8 57.9,-78 2.3,-8 4.9,-15.9 8.3,-27.1 z m 158.7,-82.6 c 4.1,3 6,6.6 2.9,11.5 -9.2,14.8 -11.6,31.6 -15.1,48.2 -5,23.9 -10.6,47.6 -22.3,69.4 -12.2,22.5 -22.8,25 -44.1,10.5 -1.2,-0.9 -2.5,-1.7 -3.6,-2.7 -27.7,-23.7 -43,-54.2 -49.3,-89.7 -1.4,-7.7 0.8,-13.5 8.7,-16.7 15,-5.9 25.3,-17.3 34.3,-30.1 6.6,-9.3 13.5,-18.5 20.1,-27.8 4.4,-6.3 10.2,-9.4 17.2,-8.4 12,0.1 16.3,1.1 22.3,7.8 9,10.1 18,20 28.9,28 z m 7,331.1 c 1.4,5.5 -0.1,9.6 -4.5,13 -15.3,11.9 -30.2,24.5 -45.9,35.8 -10.6,7.6 -22.5,12.9 -35.1,13.4 -19.7,-1.1 -37.4,-4.6 -50.1,-20.6 -3.7,-4.6 -8.4,-8.5 -12.8,-12.6 -26.5,-24.5 -26.6,-24.5 -16.6,-59.9 1.1,-3.8 2.3,-7.6 3.5,-11.4 10.9,-33.7 33.3,-58.7 61,-79.1 18.1,-13.3 29.9,-12.3 47.3,1.7 19.1,15.4 32.9,34.7 39.1,58.6 5.2,20.2 9.3,40.7 14.1,61.1 z m 104.9,-145.2 c 7.8,9.6 7.9,10.1 -4,15.5 -26.3,11.9 -44.2,31.6 -55.2,58 -4.4,10.5 -8.3,21.3 -12.5,31.9 -1.2,2.9 -0.9,7.2 -5.5,7.6 -2.5,-2.6 -1.9,-5.8 -2.2,-8.7 -2.8,-20.2 -6.4,-40.3 -15.3,-59 -8.1,-16.8 -18.5,-31.7 -31.8,-44.8 -10.1,-9.8 -10,-10.1 -1.7,-20.5 7.3,-9 12.9,-18.9 17.7,-29.3 9.2,-19.5 14.3,-40.3 19.7,-61 1.3,-5.1 1.5,-10.8 6,-15.5 6,5.4 7.7,12.4 10.5,18.5 15.3,33.8 33.1,65.8 60.7,91.4 5.1,4.7 9.2,10.5 13.6,15.9 z m 121,161.6 c 0.8,3.4 1.9,7.4 -0.7,10 -11.9,12.6 -23.3,25.9 -42.7,27.4 -36.5,2.9 -67.1,-10.8 -94.7,-33 -8.9,-7.2 -17.4,-14.6 -28.3,-19 -8.3,-3.5 -8.6,-4.8 -4.2,-13.7 8.1,-16.5 16.3,-33 26,-48.7 14.9,-24.3 38.1,-33.7 64.9,-35.9 12.1,0.5 22.8,4.2 32.2,11.3 15.5,11.8 26.3,27 32.8,45.3 6.5,18.4 10.4,37.4 14.7,56.3 z m 0.9,-339.8 c 6,4.6 7.2,10 5.2,17.1 -5.8,21.7 -10.8,43.5 -17.1,65 -6.1,20.8 -15.3,40.1 -29.6,56.6 -6.6,7.6 -13.9,14.4 -23,18.8 -10.8,5.2 -15.4,4.4 -24,-4.3 -6.9,-7.1 -13.1,-15 -20.5,-21.7 -34.9,-31.8 -49.3,-75.3 -67.6,-116.7 -2.5,-5.4 -0.9,-9.6 4.8,-12.1 8.8,-3.9 16.1,-9.9 22.2,-17.3 10.3,-12.3 22.7,-22.3 33.7,-33.9 5.2,-5.4 11.1,-8.3 17.5,-7.3 17.2,0.7 32.7,4.7 48.1,8.8 10.2,2.6 17.9,8.2 23.7,16.9 7.4,11.3 15.7,21.8 26.6,30.1 z m 81.9,199 c 8.6,6.5 8.4,7.9 -0.8,13.7 -23.5,14.8 -39.6,35.7 -51.5,60.4 -1.4,2.8 -1,7.1 -5.7,8 -0.6,-1.5 -1.5,-2.7 -1.8,-4.1 -8.1,-31.4 -24.4,-57.3 -50.7,-76.8 -7.5,-5.6 -7.4,-7 0.2,-13.5 22.6,-19.7 38.5,-44 49.8,-71.5 1.7,-3.9 1.9,-8.9 6.6,-10.9 0.9,0.6 2,1.1 2.2,1.9 1.2,3.8 2.3,7.6 3.1,11.5 6.8,32.7 21.6,60.5 48.6,81.3 z m 130.3,120.2 c 1.7,8.6 -0.4,12.1 -9.4,13.7 -13.8,2.6 -24.8,9.9 -35.4,18.3 -10.5,8.3 -20.8,16.9 -31.3,25.2 -3.9,3.1 -7.8,6.3 -12,8.8 -18.3,10.7 -35.5,7.5 -48.6,-9.3 -7.4,-9.4 -15,-18.6 -25,-25.4 -4.7,-3.1 -6.2,-7.1 -4.4,-12.8 9.4,-28 20.9,-54.8 42.1,-76.3 15.4,-15.7 34.4,-23 52.3,-24 23.5,-0.2 41.5,10.2 53,28.7 10.2,16.3 14.8,34.6 18.7,53.1 z m -2.5,-361.8 c 11.2,5.7 12.1,7.5 9.5,20 -6.8,32.7 -14.1,65.2 -21.2,97.8 -3.2,15.1 -7.1,30 -12.2,44.6 -7.6,21.6 -19.8,40 -37.4,54.8 -8.1,6.9 -16.4,8.2 -26.2,4 -21,-9.2 -36.6,-23.9 -46.2,-44.6 -14.8,-31.9 -23,-65.6 -26.9,-105.2 -1.9,-7.7 3.3,-14.5 14.8,-19.6 13.6,-5.9 23.3,-17 29.6,-30.4 9.3,-19.8 25.7,-29.5 46,-34.7 25.5,-6.4 48.1,2.1 70.2,13.3 z m 60.1,218.1 c 9.1,9.6 21.9,14.4 34,24.2 -35.1,11.5 -58.2,33.4 -71.5,66.9 -3,-2.7 -4.1,-3.2 -4.4,-4 -8.7,-21.8 -22.6,-39.4 -41.9,-53 -7.3,-5.1 -7.4,-7.2 -0.5,-14.1 22.4,-22.6 35.4,-50.1 43.9,-80.2 1,-3.5 0.8,-7.8 5.7,-10 4.6,12.9 8.8,25.5 13.7,37.9 4.7,12.2 12,22.7 21,32.3 z m 126.8,147.7 c 2.3,7.5 0.2,12.4 -6,16.6 -6.6,4.6 -11.4,11 -16.5,17.2 -12,14.7 -24.9,28.5 -38.2,42 -7.2,7.3 -15.4,9.9 -25.7,8.1 -19,-3.2 -35.1,-11.1 -46.6,-27 -6.7,-9.2 -12.9,-18.9 -19.6,-28.2 -2.9,-4 -3.6,-8.1 -1.6,-12.6 10.3,-23.2 18.6,-47.3 32.3,-68.9 13.5,-21 34.4,-29.2 57.6,-33.1 11.2,-0.6 20.6,3.4 29.1,10.2 12.1,9.6 19.8,22.3 24.3,36.9 4,12.8 6.9,26 10.9,38.8 z m 1.3,-360.1 c 20.3,11.9 20.2,26.5 15.8,46.2 -7.8,34.6 -16.8,68.7 -31.5,101.1 -6,13.2 -12.9,25.9 -23,36.5 -12.3,12.9 -26.6,16.5 -43.5,10.3 -16.1,-5.8 -26.6,-17.1 -33.1,-32.5 -11.5,-27.6 -21.4,-55.8 -28.1,-85 -1.8,-7.7 -3.4,-15.6 -2.2,-23.7 1.9,-12.3 4.2,-24.6 4.1,-37.1 0,-6 2.3,-10.6 7.9,-13.3 16.3,-8.1 29.7,-20 43,-32.1 7.4,-6.6 15.4,-10.9 25.1,-9.5 11.1,-0.7 20,3.4 28.3,9.3 13.1,9.1 23.8,22 37.2,29.8 z m 191.9,13.9 c 11.2,4.5 13.9,7.6 11.3,22.3 -3.5,20.1 -8.4,39.9 -16.1,59 -5.3,13.1 -13.2,24.5 -23.4,34.3 -16.2,15.8 -35.6,17.1 -54,3.6 -11.4,-8.4 -20,-19.3 -26.8,-31.7 -11,-19.6 -14.7,-41.1 -15.4,-66 0,-0.2 0.2,-3.3 -0.4,-6.2 -1.8,-9.5 2.6,-14.4 11.1,-18.2 11.3,-5.1 22,-11.6 32.8,-17.7 21.5,-12.3 36.8,-11.5 56.3,3.7 7.9,6.2 15.2,13.2 24.6,16.9 z m 11.8,360.9 c 0.6,14.4 -0.4,15.8 -12.9,17.5 -7.1,0.9 -13.5,3.2 -19.7,6.4 -12.7,6.4 -22.8,15.7 -32.5,26 -23.8,25.2 -53.6,22.3 -72.3,-6.9 -7.7,-12.1 -14,-25.2 -23.9,-35.9 -3.4,-3.8 -3.5,-8.1 -1.8,-12.6 11.2,-29.8 22.6,-59.6 41.8,-85.5 12.6,-16.8 29.4,-27.9 50,-33.2 16,-4.2 28.4,0.6 38,13.4 3.6,4.7 6.9,9.8 9.3,15.2 13.8,31.3 19,64.8 24,95.6 z m 419.1,83.1 c 0.8,32.3 0.2,64.6 0.2,100.8 -12.9,-7.6 -21.9,-13.6 -31.6,-18.5 -63.6,-32.1 -131.1,-47 -202.2,-42.1 -34,2.2 -67.1,9.7 -96.1,29.3 -1.3,0.9 -2.5,1.7 -3.9,2.4 -3.9,2 -6.9,0.8 -8.2,-3.2 -1.5,-4.8 -2.6,-9.7 -3.6,-14.5 -6,-28.6 -16.8,-55.4 -32.6,-79.8 -7.2,-11.1 -9.7,-22.2 -9.7,-35.1 -0.1,-40.1 -6.7,-79.3 -16.9,-118 -4.9,-18.5 -12.9,-35.6 -26.2,-49.7 -17.4,-18.5 -38.5,-25.9 -63.6,-20.8 -31.2,6.2 -56.3,22 -75.8,47 -9.8,12.7 -17.2,26.8 -23.5,41.5 -1.6,3.7 -2.3,8.6 -8.1,11 -9.1,-31.5 -27.2,-55.6 -54.4,-70.9 0.8,-4.2 2.4,-5.4 4.1,-6.4 22.4,-13.1 36.9,-33.1 48.6,-55.5 8.8,-16.8 15.5,-34.4 22,-52.2 1.3,-3.4 1.3,-8 6.3,-9 4.5,3 5.8,8.1 8.5,12.3 8.3,13.1 18.2,25 31,34 35.5,25 70.7,24 101.1,-6.7 14.6,-14.7 25.6,-31.8 32.6,-51.4 10.1,-28.2 18,-57 17.9,-87.3 -0.1,-9.1 2.8,-15.2 12.1,-17.9 8.7,-2.6 16,-8.1 23.1,-13.6 7.4,-5.8 15.6,-8.3 25,-7.9 40.7,1.3 78.3,13.2 113.2,34 9.8,5.8 19,12.8 26.7,21.3 38.6,42.6 75.7,86.2 101.2,138.2 12.5,25.5 23.6,51.6 35.6,77.4 31.2,67 45.6,137.8 47.2,211.3 z m 245,-352.9 c 1.9,54.4 -10.6,105.7 -30.5,155.7 -2.2,5.7 -5.2,10.7 -10.2,14.4 -18.7,13.4 -34.6,30.1 -51.4,45.6 -36.8,33.9 -70.8,70.2 -98.1,112.3 -0.8,1.2 -2.1,1.9 -4.8,4.3 -3,-10.6 -3.6,-19.5 -3.5,-28.5 0.1,-18.5 -2.2,-36.8 -4.8,-55 -6.2,-42.7 -20,-83.2 -36.8,-122.8 -22.1,-51.9 -44.3,-103.7 -78.1,-149.4 -14.5,-19.6 -30.1,-38.4 -44.8,-57.9 -42.9,-56.8 -101.1,-86.9 -170.4,-98.1 -17.4,-2.8 -34.6,-3.2 -52,0.1 -9.5,1.8 -18.6,5 -25.4,11.7 -12.2,12 -27.4,20.1 -39.1,32.4 -5.3,5.5 -9.1,4.1 -13.9,-0.2 -5.9,-5.4 -11.8,-10.7 -18.2,-15.5 -26.8,-20.4 -65.5,-21.8 -91.7,-0.6 -8.1,6.6 -17,12.3 -25.8,17.8 -19.2,12.1 -28.9,11.2 -45,-4.6 -11.1,-10.8 -22.9,-20.7 -34.8,-30.6 -24.5,-20.5 -79.6,-25.9 -104.7,6.3 -6.9,8.9 -16.5,15.9 -25.5,22.9 -10.9,8.5 -13.8,8.1 -25.1,0.2 -6.9,-4.9 -13.7,-10.1 -21.1,-14.1 -18.2,-9.8 -37.2,-17 -58.5,-14.9 -41.7,4.3 -73.4,22.7 -91.1,62.6 -8.1,18.4 -22.1,20.1 -36.8,6.1 -7.7,-7.3 -12.7,-16.6 -18.1,-25.5 -9.7,-16.2 -23.6,-26.7 -41.4,-32.5 -19.5,-6.4 -39.5,-10.1 -59.7,-13.1 -19.8,-3 -35.2,2.6 -47.1,18.7 -11,14.9 -24.9,27.2 -37.5,40.6 -8.4,8.9 -13.8,9 -23.7,2.3 -7,-4.7 -13.6,-10.3 -18.6,-17.1 -15.8,-21.6 -37.9,-29.3 -63.5,-31.1 -18.8,-1.3 -34.3,4.1 -46.2,19 -8.6,11 -17,22.1 -24.2,34.1 -2.3,3.9 -4.6,7.8 -7.5,11.2 -7.8,9 -15.4,9.3 -24.6,1.5 -5,-4.3 -8.5,-9.7 -12.2,-15 -15.4,-22.1 -38.1,-30.1 -64.1,-22.8 -12.8,3.6 -23.4,10.8 -33.1,19.5 -7.8,7 -15.7,13.9 -25.6,17.9 -13.2,5.3 -18.2,3.6 -25.7,-8.8 -21.2,-35.4 -63.7,-46.6 -99.8,-26.4 -4.3,2.4 -8.7,5 -13.3,6.6 -11.7,4 -18.9,1 -24.9,-9.8 -2.5,-4.4 -4.4,-9.1 -4.3,-14.2 0.5,-25.6 3,-51 14.7,-74.1 13.2,-26.3 29.7,-50.7 49.3,-72.9 15.6,-17.5 31.2,-34.9 47.2,-52 19,-20.4 37.9,-41 60.2,-58 26.6,-20.301 53,-40.699 79.6,-60.898 25,-19.102 51.9,-35.2 79.8,-49.801 53,-27.699 107.4,-52.602 161.3,-78.403 23.5,-11.296 47.9,-19.796 73.2,-25.796 53.7,-12.903 107.5,-26 161.5,-37.704 80.5,-17.597 161.9,-29.5 244.2,-31.597 94.7,-2.301 189.4,-1.801 283.9,5.601 53.2,4.098 106.1,10.797 158.2,22.098 52.8,11.602 102.3,33.102 152.7,51.898 48.4,18 93.3,42.602 135.7,72 32.8,22.704 63.6,48 93.9,73.903 16.4,14 30.4,29.898 43.4,47.199 32.5,43.301 56.7,91.2 80.5,139.6 17.4,35.3 30.1,71.6 33.8,110.8 1.9,19.8 3.7,39.7 4,59.6 0.6,34.4 -1.1,68.8 0.1,103.2 z m 858.3,1391.1 c 0.3,65.4 -5.5,130.4 -11.4,195.4 -7.2,78.5 -20.8,155.9 -38.7,232.7 -15.2,65.2 -38.9,127.6 -61.8,190.4 -23,63.3 -49.1,125.2 -86.3,181.8 -14.5,22.1 -26.9,45.5 -40.6,68.1 -7.9,13.2 -16,26.4 -25,39 -31.7,44.2 -67.5,85.1 -104,125.4 -94.3,104.3 -198.1,197.8 -316.5,274.4 -56.1,36.3 -114,69.6 -175.6,95.8 -3.5,1.5 -6.7,4.6 -11.1,2.3 0,-2 0.5,-3.9 1.1,-5.6 l -19.3,-7.8 c -1.9,4.9 -3.9,9.9 -6,14.8 -4.2,9.8 -10.5,15.8 -20.2,20.3 -68.3,31.4 -139.6,53.2 -212.3,71.5 -62.9,15.8 -127,25.2 -191.1,34.3 -72.1,10.2 -144.3,19.4 -217,21.6 -72.2,2.3 -144.5,5.2 -216.8,3.6 -22.4,-0.5 -44.8,-1.7 -67.1,-4 -48.5,-5 -97,-10.9 -145.5,-16.7 -66.1,-7.9 -130.2,-23.7 -192.7,-46.5 -70,-25.6 -136.6,-58.5 -201.5,-94.7 -155.4,-86.5 -289.4,-199 -404.8,-334.1 -106.9,-125.2 -187.2,-265.6 -238.3,-421.7 -52.499,-160.6 -77.499,-326.4 -82.8,-495.1 -2.098,-69.3 6.898,-137.2 25.5,-203.9 7.699,-27.9 14.3,-56 18.5,-84.7 6.4,-43.5 2.5,-85.4 -19.801,-124.5 -4.199,-7.3 -7.402,-15.2 -11.601,-22.6 -26.594,-47.2 -29.598,-97.2 -19.094,-149.2 9.695,-48.6 29.894,-92.9 52.596,-136.2 30,-57.5 73.3,-102.7 128.3,-136.8 7.5,-4.6 9.9,-4.2 11.7,3.9 8.7,38.9 21.4,76.9 28.2,116.2 4.7,27.1 5.3,54.5 6,81.9 0.4,13 1.7,25.9 5.4,38.4 1,3.4 3.1,6.6 7.3,6.3 4.7,-0.4 4.4,-4.5 4.8,-7.9 1.3,-12.9 1.9,-25.9 4.1,-38.6 9.1,-52.1 8.1,-103.8 -1.3,-156 -18.1,-99.1 -32.8,-198.6 -39,-299.2 -1.4,-23 -0.7,-45.8 4.1,-68.4 3,-14.6 4.2,-15.5 17.5,-9.4 18.8,8.6 37.5,8.2 56.6,1.1 13,-4.8 24.2,-12.1 33.1,-22.3 21.4,-24.4 32.6,-20.8 53.3,-1.2 14.3,13.6 31.3,22.6 49.9,29.3 23.5,8.4 45.8,6.5 67.4,-6.5 19.7,-12 38.1,-25.5 53.3,-43 7.1,-8.3 8.9,-8.4 16.7,-0.6 7,7 13.4,14.7 19.9,22.3 8.9,10.4 18.8,19.3 32,23.8 27.8,9.3 55.3,11.6 82.8,-2 12.1,-6 23.8,-12.5 34.6,-20.6 9.6,-7.2 18.9,-14.7 28.4,-22 17,-13 28.4,-12 45.3,1.4 32.8,26 68.9,43.1 112.4,41.4 19.8,-0.8 37.1,-6.3 52.1,-19.2 4.9,-4.2 9.6,-8.7 14.6,-12.7 8.9,-7.1 15.9,-7 23.8,1.1 5.2,5.3 9.4,11.6 14,17.5 10.6,13.5 24.3,21.6 41.1,25.3 20.8,4.6 39.6,0.3 56.8,-11.5 12,-8.1 23.2,-17.3 35.1,-25.5 28.3,-19.4 23.7,-16.3 39,7.3 18.4,28.2 44,43.4 76.4,50.2 26.3,5.5 47.9,-0.9 66.9,-19.6 13.9,-13.6 27,-27.9 39.8,-42.6 6.4,-7.3 9.2,-7.2 15.3,0.5 5.8,7.4 10.8,15.6 16.7,22.9 11.1,13.9 24.4,25.1 42.2,29.4 31,7.5 58.2,-0.2 81.3,-22 6.5,-6.2 12,-13.4 19.7,-18.3 8.1,-5.1 11.3,-4.8 18.4,1.8 2.6,2.4 5,5 6.9,7.9 12.5,19.2 24.4,38.7 30.7,61.2 7.8,27.9 14,56.2 16.5,85 5.2,60.2 16.1,119.5 24.6,179.1 8.7,60.5 30.2,116.5 59.8,169.7 5.9,10.5 12.9,20.2 21.4,28.6 3.8,3.8 7.9,9.2 14,6.1 5.5,-2.8 3,-8.9 2.4,-13.6 -1.4,-11.4 -4.6,-22.5 -8.4,-33.3 -6.7,-19.3 -13.8,-38.4 -20.5,-57.7 -5.3,-15.6 -3.8,-17.4 12.2,-17.8 25.9,-0.5 50.4,4.6 74,15.4 44.8,20.6 89.3,42 134.6,61.6 54.1,23.4 99,59.1 136.3,104.6 27.5,33.5 54,67.8 78.2,103.8 18,26.7 31.3,55.5 41.3,86 31.2,95.1 45.9,192.6 44.6,292.7 -0.3,30 -3.6,59.6 -11.5,88.6 -9.9,36.1 -20.3,72 -30.1,108.1 -22.9,84.2 -67.8,154.5 -134,211.3 -5.3,4.5 -10.5,9.3 -14.8,14.8 -10.9,14.1 -9.1,27.9 5.1,39.1 5.4,4.3 11.5,7.7 17.4,11.5 38,24.1 63.3,57.3 72.1,101.9 3.1,15.7 5.5,31.4 8.3,47.1 3.9,21.6 7.8,43.2 11.7,64.7 0.7,3.5 1,7.7 5.4,7.8 4,0.2 5.6,-3.7 6.9,-6.9 2.6,-6 3.9,-12.3 4.8,-18.8 5.8,-38.3 4.2,-76.5 -2.3,-114.6 -4.9,-28.8 -17.6,-53.7 -37,-75.5 -10.3,-11.5 -21.5,-22 -34,-31.3 -11.7,-8.6 -11.7,-9.8 -0.7,-19.9 0.8,-0.7 1.5,-1.4 2.3,-2 56.4,-50 97.5,-110.4 122.6,-181.3 18.5,-52.2 32.9,-105.6 46.4,-159.3 3.4,-13.5 5.8,-27.4 6.9,-41.2 3.9,-48.7 5.1,-97.6 4.9,-146.3 -0.1,-49.8 -3,-99.6 -10.5,-149 -9.7,-62.8 -23.4,-124.4 -51,-182.1 -17.5,-36.6 -39.4,-70.4 -60.6,-104.8 -26.1,-42.1 -58.2,-78.4 -98.3,-107.3 -72.4,-52.2 -145.2,-103.7 -223,-147.6 -16.6,-9.4 -34.1,-16.6 -52.3,-21.9 -6.7,-2 -13.3,-4.2 -20,-6.1 -7.4,-2.1 -11.9,-6.6 -14.1,-14 -11,-38.4 -14.4,-77.3 -6.9,-116.8 2.3,-12.4 5.1,-14.3 18.4,-14.5 14.5,-0.1 28.9,0.9 43.2,3 62.9,9.3 120.6,30.3 169.5,72.3 23.1,19.9 45.8,40 67.3,61.5 34.9,35 66.2,73.2 100.6,108.6 9.2,9.4 16.1,20.2 21.1,32.3 4.5,11.1 9.4,22 14.8,32.7 4.6,9.1 11.6,12.8 19,11.3 7.5,-1.4 12.9,-7.6 14.5,-17.1 1.3,-7.9 0.5,-15.9 -0.5,-23.8 -3.4,-27.8 -9.3,-55.1 -16.9,-81.9 -16.1,-56.6 -32.3,-113.3 -65.9,-162.8 -4,-6 -2.9,-8.8 4.3,-10.6 7.2,-1.9 14.6,-3.3 22,-3.8 19.9,-1.4 40,-2.1 59.8,0.2 57.4,6.7 107.9,27.6 144.4,75 10.6,13.8 21.4,27.5 31.7,41.6 48,65.7 88.9,135.9 128.6,206.9 9.7,17.4 17.8,35.6 24.4,54.4 2.5,7.1 3.8,14.5 6.2,21.6 2.4,7.1 7,12.1 15.1,12.4 7.4,0.3 13.2,-4.6 16,-13.2 2.1,-6.2 2.1,-12.7 2.2,-19.2 0.5,-37.5 -4.6,-74.5 -8.1,-111.7 -6.5,-69.1 -21.7,-135.7 -52,-198.5 -5.4,-11.2 -3,-14.2 9.8,-12.5 16.8,2.3 33.2,6.7 48.9,13.2 41.4,16.9 79.7,38.9 114.1,67.5 53.7,44.8 103.4,93.8 148.5,147.2 59.6,70.6 106.9,149 145.2,232.7 59.1,129.3 93.9,264.4 94.7,407.5 z m 48.7,90.6 c 0,-53.9 0,-107.7 0,-161.5 -3.4,-13.2 -1.6,-26.8 -3.1,-40.1 -7.5,-63.6 -22.6,-125.6 -42.8,-186.2 -55.7,-167 -141.6,-315.9 -267.3,-440.5 -38.3,-37.9 -76.7,-75.7 -120.8,-106.9 -40.5,-28.5 -83.2,-53 -131.7,-65.8 -46.7,-12.4 -91.8,-8.8 -134.8,14.1 -1.8,1 -3.5,1.9 -5.3,2.8 -5.1,2.7 -7.5,0.8 -7.7,-4.6 -0.1,-5.9 -0.2,-11.9 -0.1,-17.9 0.3,-15.4 3,-30.8 1.8,-46.3 -4.4,-52.1 -9.7,-104.2 -18.8,-155.7 -15.2,-85.8 -34.9,-170.7 -56.7,-255.2 -12.8,-49.7 -23.5,-99.9 -42.8,-147.7 -16,-39.8 -31.4,-79.8 -50.1,-118.3 -30.8,-63.3 -62.6,-125.998 -113.1,-176.702 -4.2,-4.199 -7.7,-9.199 -11.3,-13.898 -55.3,-72.801 -124.3,-130.199 -201.1,-178.801 -15.2,-9.597 -31.1,-17.797 -47.4,-25.398 -38,-17.699 -77.3,-32.102 -116.1,-47.903 -47,-19.097 -96.1,-29.398 -146.2,-35.597 -23.2,-2.903 -46.4,-5.403 -69.6,-8 -80.8,0 -161.5,0 -242.3,0 -4.9,0.597 -9.8,1.699 -14.8,1.699 -80.5,0.602 -159.8,12.199 -238.9,26.301 -72.6,13 -143.9,32.097 -216.1,47 -30.3,6.301 -59.6,16.199 -87.8,29 -38.1,17.398 -76.2,34.898 -114.7,51.199 -92.1,39 -172.4,96 -246,162.398 -39.6,35.704 -73.4,77.402 -103.5,121.502 -28.4,41.5 -48.3,87 -53.8,137.9 -1.7,16 0,31.2 8.2,44.7 10.3,17.2 6.6,17.3 -3.3,27.9 -25,26.7 -40.6,57.9 -44.4,94.4 -3.5,34.7 -0.8,67.9 25.2,94.8 4.7,4.9 4,8.6 -1.5,12 -2.9,1.9 -5.6,4.1 -8.6,6 -25.3,16.6 -39.5,40.2 -44,69.9 -5.3,35.4 -3.7,70.6 5.8,105.2 3.3,12 3.3,22.7 -1.4,34.6 -11.1,28 -15.9,57.1 -16.2,87.6 -0.7,65.2 8.3,129.2 19.5,193 2.9,16.3 3.2,16.2 -11.4,24.9 -25.7,15.4 -50.7,32 -72.7,52.3 -79.503,73.5 -128.702,163.8 -147.101,270.7 -1.097,6.4 -2.301,12.7 -5.199,18.6 0,15 0,29.9 0,44.9 2.5,5.5 4,11.2 4.902,17.2 3.696,25.4 12.301,49.3 25,71.5 8.598,15.2 17.895,29.9 27.2,44.7 11,17.4 15.796,36.1 14.902,56.8 -0.906,20 -3.504,39.7 -8.805,59 -5.699,21.1 -11.898,42.2 -17.703,63.3 -14.695,54 -24.094,108.9 -25.496,165 -2.102,80.3 4,160.2 14.602,239.9 12.898,97.5 32.5,193.6 62.5,287.2 75.698,235.9 208.798,434.6 393.798,598.3 100.4,88.8 209.6,165.4 332.5,220.9 29.4,13.4 59.5,25.7 86.9,43.3 5.4,3.5 11.5,6 17.4,8.4 43.4,17.8 87.2,34.3 132,48.2 52,16.2 105.6,24.6 159.5,31.6 56.4,7.3 112.6,15.5 169.5,16.3 79.2,1.1 158.5,-0.6 237.6,-3.8 29.4,-1.1 58.7,-3.7 87.9,-6.4 53.1,-4.9 105.9,-12.4 158.7,-19.5 91.6,-12.3 181.5,-31.4 269.7,-59.1 53.4,-16.7 104.3,-39.7 155.7,-61.3 112,-47 214.8,-109.2 309.2,-185.5 66.8,-53.9 129.5,-112.1 187.4,-175.7 64.7,-70.9 122.9,-146.5 171.5,-229.4 18.4,-31.4 36.1,-63.1 56.6,-93.3 8.7,-12.7 15.8,-26.5 22.1,-40.6 30.2,-67.4 56.2,-136.5 79.3,-206.5 40,-121.2 60.5,-246.4 70.9,-373.5 1.7,-19.8 1.4,-39.8 4.7,-59.4" style="fill: rgb(0, 0, 0); fill-opacity: 1; fill-rule: nonzero; stroke: rgba(186, 218, 85, 0);" id="path44"/>
      <path d="m 3883,2968.6 c 3,-2.5 6.9,-5.1 5.1,-9.8 -1.5,-3.9 -5.6,-3.8 -9,-4 -10,-0.5 -20,-0.8 -29.8,1.3 -49.4,10.2 -98.7,20.8 -139.5,53.4 -3.1,2.5 -6.9,4 -10.5,5.7 -14.4,6.6 -26.4,16 -34.5,29.8 -3.7,6.5 -9.4,9.8 -16.4,11.9 -8.4,2.5 -16.8,2.4 -25.2,2.2 -24.1,-0.7 -47.9,1 -70.8,9 -1.3,0.4 -2.9,0 -6.8,0 5.6,-9.2 10.4,-16.8 14.8,-24.5 19.2,-33.6 33.9,-68.8 36.7,-108 1.9,-26.4 2,-52.8 0,-79.2 -0.5,-6 -1,-11.8 -0.1,-17.8 1.7,-10.4 2,-20.9 1,-31.3 -1.9,-20.4 1.8,-39.7 9.8,-58.4 6.3,-14.8 15.1,-28.1 25.4,-40.3 14.8,-17.3 26.1,-36.5 33.5,-57.9 2.3,-6.7 10,-15.5 3.8,-20.3 -8.1,-6.4 -15.2,3.4 -21.3,8.5 -19.5,16.3 -33.1,37.1 -43.9,59.9 -7,14.8 -13.9,29.7 -21.3,44.4 -7.9,15.5 -15.7,31.5 -19,48.6 -3.2,16.1 -9.6,30.3 -18.7,43.6 -8.9,13 -13.4,27.6 -15.5,43.2 -2.7,19.8 -3.9,39.8 -2.1,59.6 3.5,36.6 -9.8,66.3 -34.3,92.1 -8.9,9.4 -17.7,19 -26.1,28.8 -11.2,13.1 -19.7,27.9 -20.9,45.4 -2.1,29.7 0.2,59 12.5,86.5 9,20.2 13.4,41.5 17.9,63 5.8,28 0.6,53.4 -11.9,78.1 -5.9,11.6 -10.3,23.7 -13.3,36.4 -2.8,11.9 -5.4,23.8 -8.2,35.7 l 24.2,5.8 c 1.1,-4.3 2.1,-8.5 3.1,-12.8 5,-21.4 11,-42.2 21.1,-62 9.3,-18.2 16.4,-37.7 18.2,-58.3 2.5,-28.3 6.8,-56.3 10.6,-84.4 2.5,-18.2 9.6,-33 18.4,-48.1 7.1,-12.4 17.4,-18.7 31.2,-20.1 12.4,-1.3 24.8,-2.7 37.2,-3.7 26.3,-2.3 52.7,-3.6 76.8,-16.6 9.4,-5.1 18.2,-10.8 23.6,-20.1 8.1,-13.9 18.3,-25.9 30.7,-36.2 3.4,-2.8 6.5,-6.3 8.9,-10 12.9,-19.4 31.6,-29.8 53.1,-36.5 18.1,-5.7 36.1,-11.7 53.9,-17.9 9.9,-3.5 19.4,-8 27.6,-14.7" style="fill: rgb(0, 0, 0); fill-opacity: 1; fill-rule: nonzero; stroke: rgba(186, 218, 85, 0);" id="path46"/>
      <path d="m 3692.2,3412.6 c 3.8,-3.5 11,-7.6 7.7,-13 -4,-6.4 -10.8,-1 -15.8,1.1 -34.1,14.6 -65.7,33.6 -96.3,54.2 -21.1,14.2 -42.2,28.3 -63.5,42.3 -9.1,6 -18.7,11.7 -29.6,13.9 -17.1,3.4 -34,7.6 -49.8,15.3 -0.5,0.2 -1.6,-0.8 -2.6,-1.3 -0.9,-5.1 1,-9.8 2.1,-14.5 8.1,-33.5 16.3,-67.1 24.2,-100.6 l -24.2,-5.8 c -2.8,11.9 -5.7,23.8 -9,35.5 -8.9,32.2 -16.5,65 -32.6,94.5 -27.7,50.8 -51.5,103.4 -74.5,156.5 -18.2,42.3 -32.9,85.5 -40,131.1 -1.5,10 -4.7,19.4 -11,27.5 -11.8,15 -24.2,29.6 -41.2,38.6 -20.8,11.1 -29.4,28.4 -31,50.9 -1.5,20.9 -3.8,41.7 -5.8,62.5 -5.2,52.2 -17.8,102.4 -37.2,150.9 l 19.3,7.8 c 1.2,-2.9 3,-5.5 4.2,-8.3 17.5,-39.8 31.5,-80.8 39,-123.8 4.6,-26 8.6,-52.1 12.1,-78.2 2.1,-15.8 8.4,-26.7 22.8,-35.7 33.1,-20.6 59.7,-47.9 73.4,-85.8 22.8,-63.3 50,-125 71.6,-188.7 1.9,-5.6 3.5,-11.5 7.3,-16.3 11.2,-14 22.5,-27.9 33.8,-41.8 12.4,-15.2 28.5,-22.8 48,-24 17.3,-1 33.1,-6.8 47.8,-15.7 13.7,-8.2 26.3,-18 38.9,-27.8 39.9,-30.9 74.7,-67.4 111.9,-101.3" style="fill: rgb(0, 0, 0); fill-opacity: 1; fill-rule: nonzero; stroke: rgba(186, 218, 85, 0);" id="path48"/>
      <path d="m 2607.2,2410.5 c 11.7,4.7 12.2,7.2 5.7,17.6 -8.6,13.3 -19.7,23.5 -34.3,30.1 -14.6,6.5 -29.3,12.5 -43.1,20.7 -27.4,16.1 -50,37.9 -72.5,59.8 -17.3,16.9 -30.3,36.8 -39.1,59.5 -12.8,33 -24.3,66.5 -32.7,100.9 -4,15.9 -8.2,31.8 -14.5,47.1 -12.5,30.7 -34.6,50.4 -66.5,59.5 -13,3.7 -26.1,6.8 -39.4,8.8 -36.4,5.5 -60.5,25.5 -73.8,59.7 -10,25.6 -19.5,51.3 -27.3,77.6 -9.1,30.2 -14.2,61.1 -14.4,92.7 -0.4,58.8 -0.7,117.6 8.1,176 1.8,12.4 -0.6,14.5 -12.9,11.1 -8.2,-2.2 -16,-5.5 -23.1,-10.4 -8.1,-5.7 -15.8,-12.3 -24.4,-17.1 -36.5,-20.2 -56.7,-53 -73.2,-89.7 -25.7,-57.2 -36.8,-116.7 -30.4,-179.1 4.4,-43.2 13,-85.7 23.5,-127.8 32.7,-131.9 96,-245.2 201,-333.5 69.8,-58.8 150.5,-88.2 241.4,-90 18.6,0.2 36.9,1.4 55.2,4.2 29.7,4.5 58.8,11.3 86.7,22.3 z m 225.5,344.6 c 3,-17.7 4,-35.6 4.5,-47.2 -1.7,-52.8 -8.6,-98.6 -19.6,-143.7 -9.7,-39.7 -28.3,-74.8 -58.7,-102.3 -57.7,-52.1 -122.4,-92.3 -199.4,-109.6 -93.2,-20.8 -183.1,-10.5 -269.8,29.2 -81.6,37.3 -144,97 -196.6,168.1 -66.9,90.5 -105.6,192.5 -123.2,303 -5.9,36.9 -11.8,73.9 -11.9,111.4 0,62.1 15.3,120.2 46.9,173.9 4.3,7.2 8.2,14.8 12.4,22.1 12.7,22.3 28.4,42.2 48.8,58 14.2,11 28.5,21.7 43.2,32 25.2,17.5 53.4,23.6 83.7,21.3 18.9,-1.4 37.6,-4.2 56.6,-4.2 11,-0.1 21.8,-2.7 32.4,-5.5 59.4,-15.9 116.4,-37.1 170.3,-67.4 109,-61.2 204,-138.9 286,-232.9 17.7,-20.4 32.8,-42.7 47,-65.5 27,-43.2 39.2,-91.3 47.4,-140.7" style="fill: rgb(0, 0, 0); fill-opacity: 1; fill-rule: nonzero; stroke: rgba(186, 218, 85, 0);" id="path50"/>
      <path d="m 2013.2,2268.7 c 1.6,-24.4 1.2,-48.8 -5.4,-72.6 -4.8,-17.5 -11.9,-33.8 -23.1,-48.2 -7.4,-9.6 -16.7,-16.9 -28.9,-19.9 -7.1,-1.8 -13.9,-0.8 -20,3.1 -4.2,2.7 -5,6.6 -0.7,9.7 25.8,18.8 32.4,47.9 40.1,76.1 6,22.1 7.9,45 7.4,69.2 1.3,28.6 -4.3,57.2 -14.8,85 -2.1,5.5 -3.6,11.4 -5.1,17.1 -0.5,2 0.5,3.9 2.4,5 2,1.2 3.9,0.2 5.5,-1 4.8,-3.7 7.9,-8.8 10.9,-14.1 18.9,-34 29.1,-70.7 31.7,-109.4" style="fill: rgb(0, 0, 0); fill-opacity: 1; fill-rule: nonzero; stroke: rgba(186, 218, 85, 0);" id="path52"/>
      <path d="m 1647.7,2581.5 c -6,-0.6 -8.1,-3.7 -10.4,-6.1 -30.1,-31.4 -57.4,-64.9 -77.3,-103.9 -29.1,-56.8 -45.6,-116.9 -48.6,-180.5 -1.5,-30.2 2.7,-59.7 15.1,-87.6 7.8,-17.7 18.7,-32.9 36.1,-42.5 16.7,-9.1 24.2,-7.8 36.5,6.4 8.8,10.3 14.6,22.6 22.5,33.5 6.5,8.9 5.8,16 -0.1,25.5 -23.1,37.2 -34.5,78.1 -34.9,122 -0.3,22.9 1.8,45.7 3.2,68.6 3,48.6 15.7,94.2 40.6,136.2 5.3,9 10.8,17.8 17.3,28.4 z m 161.7,-439.2 c 8.7,2.8 9.7,4.8 5.3,12.8 -7.7,13.9 -15.7,27.7 -23.8,41.4 -5.8,9.9 -12.8,19 -19.9,28 -14.1,17.8 -32.6,21.5 -53.6,17.5 -10.2,-1.9 -11.7,-4.8 -7.2,-14.3 6.1,-13 12.6,-26 19.3,-38.7 6.2,-12 14.1,-23 23.6,-32.6 10.6,-10.7 23.1,-17.1 37.7,-16.6 6.9,0 12.8,0.6 18.6,2.5 z m 106.5,153.2 c 0.8,-10 1.7,-19.9 1.5,-29.9 -0.6,-18.9 -2.1,-37.8 -5.8,-56.4 -3,-14.8 -8.5,-28.6 -17.5,-40.9 -12.4,-17 -26.8,-32.3 -43.7,-44.8 -22.1,-16.2 -47,-23.2 -74.6,-18.6 -15.3,2.6 -28,9.9 -39.3,20.3 -22.1,20.4 -36.7,45.6 -48.3,72.9 -2.5,6 -5.1,11.9 -8.1,17.6 -2.1,4.1 -5.5,4.2 -8.4,0.9 -2.7,-3 -5.1,-6.2 -7.1,-9.6 -8.6,-14.6 -17,-29.3 -25.4,-44 -5.9,-10.5 -12.6,-20.3 -21.1,-28.9 -15.4,-15.6 -33.8,-20.5 -54.8,-15.2 -25,6.3 -45.5,19.9 -61.3,40.3 -20,25.9 -31,55.6 -34.5,87.9 -7.2,68 6.3,132.8 32.5,195.3 24.9,59.5 61.9,110 111.8,151 10.5,8.6 21.4,16.3 33.5,22.3 13.8,6.9 27.6,13.8 40.7,22 17.2,10.8 36.5,13.1 56.1,6.7 18.2,-5.9 35.1,-14.5 48.2,-28.8 44.7,-48.7 80.5,-102.4 96.9,-167.6 12.8,-50.3 24.3,-100.7 28.7,-152.5" style="fill: rgb(0, 0, 0); fill-opacity: 1; fill-rule: nonzero; stroke: rgba(186, 218, 85, 0);" id="path54"/>
      <path d="m 1730.9,2923.4 c 5.8,-1.8 6.6,-5.7 1.7,-9.7 -3.8,-3.1 -8.4,-5.3 -12.6,-8 -27.1,-17 -52.9,-35.6 -71.5,-62.4 -26.2,-37.8 -37.8,-79.5 -34,-125.6 1.6,-19.8 3.2,-39.6 6.5,-59.3 0.8,-4.9 1.6,-10.4 -4,-13.2 -5.9,-3 -10.7,0.2 -14.6,4.2 -3.5,3.6 -6.7,7.5 -9.1,11.8 -16.8,30 -26.7,62 -27.6,98.1 1.7,38.1 13.9,73.8 39.1,104.5 5.3,6.4 7.2,11.8 4.4,20.1 -21.2,64.6 0.8,117 46.8,162.2 9.6,9.5 20.7,17.2 32.9,23.1 3.6,1.7 7.4,3 11.2,4.2 1.9,0.6 4.1,0.4 5.5,-1.3 1.9,-2.3 0.8,-4.7 -0.6,-6.7 -1.8,-2.5 -3.6,-4.9 -5.6,-7.1 -19,-21.4 -32.7,-46.3 -45.8,-71.5 -11.9,-22.6 -16.1,-46.9 -14.2,-72.3 1.1,-14.4 3.5,-15.7 16.3,-7.7 15.8,9.9 32.8,16.5 51.5,18.5 8,0.8 16,0.6 23.7,-1.9" style="fill: rgb(0, 0, 0); fill-opacity: 1; fill-rule: nonzero; stroke: rgba(186, 218, 85, 0);" id="path56"/>
      <path d="m 1187.9,2619 c 3.8,34.5 -2,66.5 -26.7,93 -8.5,9.1 -16.8,18.4 -25.7,27.1 -27.1,26.2 -38.7,58.3 -38.5,95.5 0.5,75 14.1,147.5 40.1,217.7 6.9,18.6 14,37.2 20.9,55.8 -28,-16.3 -51.8,-35.7 -69.5,-62.7 -32.2,-49.1 -50.1,-102.5 -55.8,-160.6 -4.3,-44.7 0.6,-87.2 24.6,-126.6 13,-21.3 22.2,-44.6 30.5,-68.1 14.6,-40.9 20.4,-82.9 17,-126.3 -1.8,-22.6 -7.3,-44.2 -14.2,-65.5 -6.1,-18.5 -11.8,-37 -15.1,-56.2 -2,-11.8 0.7,-21.8 9.6,-29.8 18.4,-16.4 40,-26.2 64.3,-29.4 12.9,-1.7 15.5,2 14,15.1 -2.4,20.8 -4.7,41.5 -6.9,62.2 -3.5,33.3 4.5,65.4 15.2,96.7 7,20.3 13.9,40.7 16.2,62.1 z m 344.5,314.5 c 1.4,-12.9 2.7,-25.7 2.5,-38.8 -2.1,-45.9 -7.5,-91.5 -21.7,-135.2 -16,-49.4 -37.1,-96.7 -61.2,-142.7 -1.8,-3.5 -3.7,-7.1 -6,-10.3 -39.9,-55.9 -77.3,-113.7 -121.9,-166.2 -36.2,-42.7 -83.4,-68.9 -134.1,-89.4 -20.9,-8.5 -42.9,-8.7 -64.7,-2.7 -21.8,6.1 -41.9,15.7 -60.1,29.3 -23.1,17.2 -33.6,39.6 -29,68.9 3.1,19.3 8.1,38 14.4,56.4 21.6,62.9 16.8,124.4 -8.6,185.1 -9.3,22.1 -19.8,43.6 -31,64.7 -13.004,24.5 -21.398,50.2 -23.699,78 -1.102,13.6 0.801,26.9 1.699,40.3 4.902,76 28.3,145.2 76.7,205.1 14.9,18.4 31.6,34.6 51.7,47 14.6,8.9 27.2,19.9 39.5,31.6 40.3,38.4 88.1,59.3 144.4,58.2 59.3,-1.1 109,-24.3 145.6,-70.5 48.3,-61 77.2,-130.9 85.5,-208.8" style="fill: rgb(0, 0, 0); fill-opacity: 1; fill-rule: nonzero; stroke: rgba(186, 218, 85, 0);" id="path58"/>
      <path d="m 1505.7,1321.6 c 3.2,-8 1.8,-14 -4.1,-20.2 -6.9,-7.2 -12.7,-15.4 -19.2,-23 -6.4,-7.6 -9.2,-8.4 -17.7,-3.3 -4.7,2.7 -9,6.2 -12.9,10 -12.9,12.8 -26.9,23.8 -44.3,29.8 -7.2,2.5 -10,7.4 -9.7,14.8 0.2,6.9 0,13.9 0,20.9 1.5,17.5 3.2,34.8 8.7,51.6 4.5,13.9 10.8,26.8 21.7,36.9 9.9,9 15.6,9.3 26.4,1.1 11.8,-8.9 19.8,-20.8 25.6,-34.3 4.7,-11 8,-22.5 10.9,-34.1 4.3,-16.9 8.1,-34 14.6,-50.2" style="fill: rgb(255, 255, 255); fill-opacity: 1; fill-rule: nonzero; stroke: rgba(186, 218, 85, 0);" id="path60"/>
      <path d="m 1465.1,1649.6 c 11.5,-10.2 16,-22 12.5,-38.5 -6.6,-31.8 -19.4,-60.6 -37.3,-87.2 -20.3,-30 -37.3,-32 -64.6,-8.2 -27.6,24 -41.1,55.6 -49.6,90 -1.3,5.3 -2.3,10.7 -3,16.1 -1.5,12.7 0.7,23.5 13.5,30.3 8.4,4.4 14.4,12.1 21.3,18.6 12.7,11.8 29.1,19.1 43.4,19.1 6.4,0.5 12.8,-1.9 18.9,-5.8 15.9,-10.2 30.8,-21.9 44.9,-34.4" style="fill: rgb(255, 255, 255); fill-opacity: 1; fill-rule: nonzero; stroke: rgba(186, 218, 85, 0);" id="path62"/>
      <path d="m 1350.2,1318.4 c 4.4,-7.3 5.4,-13.7 -0.6,-20.4 -0.7,-0.7 -1.1,-1.6 -1.6,-2.5 -11.4,-18.4 -13.9,-19.9 -36.4,-21 -6.2,-1 -12.4,0.5 -18.2,3.8 -14.7,8.1 -30.2,12.8 -47.1,12 -7.3,-0.4 -12,3.1 -16.5,8.3 -27.6,31.8 -39.6,68.4 -36,110.4 2.1,24 15.2,39.3 36.7,48.3 10.5,4.4 20.3,2.9 29.2,-4.5 7.7,-6.5 14.4,-13.8 20.8,-21.5 12.5,-14.9 22.7,-31.4 32.4,-48.3 12.4,-21.5 24.6,-43.2 37.3,-64.6" style="fill: rgb(255, 255, 255); fill-opacity: 1; fill-rule: nonzero; stroke: rgba(186, 218, 85, 0);" id="path64"/>
      <path d="m 1282,1644.4 c 6.8,-2.5 8.6,-7.1 7.2,-14.1 -8.1,-39.1 -23.1,-75 -48.7,-106 -1.9,-2.3 -4,-4.4 -6.2,-6.4 -11,-10.4 -14.4,-10.1 -27.5,-3 -31.3,17 -43.8,44.6 -45.6,78.5 -0.4,8.9 0,17.9 0,26.9 -0.3,0 -0.6,0 -0.8,0 0.5,11.4 1,22.8 1.6,34.2 0.5,8 3.7,13.1 12.6,13.5 7.7,0.3 14.1,4.2 20.5,8.2 18.2,11.2 32.7,10.2 49,-3.4 5.7,-4.8 10.9,-10.3 16.3,-15.4 6.3,-5.8 13.5,-10.1 21.6,-13" style="fill: rgb(255, 255, 255); fill-opacity: 1; fill-rule: nonzero; stroke: rgba(186, 218, 85, 0);" id="path66"/>
      <path d="m 1161.2,2712 c 24.7,-26.5 30.5,-58.5 26.7,-93 -2.3,-21.4 -9.2,-41.8 -16.2,-62.1 -10.7,-31.3 -18.7,-63.4 -15.2,-96.7 2.2,-20.7 4.5,-41.4 6.9,-62.2 1.5,-13.1 -1.1,-16.8 -14,-15.1 -24.3,3.2 -45.9,13 -64.3,29.4 -8.9,8 -11.6,18 -9.6,29.8 3.3,19.2 9,37.7 15.1,56.2 6.9,21.3 12.4,42.9 14.2,65.5 3.4,43.4 -2.4,85.4 -17,126.3 -8.3,23.5 -17.5,46.8 -30.5,68.1 -24,39.4 -28.9,81.9 -24.6,126.6 5.7,58.1 23.6,111.5 55.8,160.6 17.7,27 41.5,46.4 69.5,62.7 -6.9,-18.6 -14,-37.2 -20.9,-55.8 -26,-70.2 -39.6,-142.7 -40.1,-217.7 -0.2,-37.2 11.4,-69.3 38.5,-95.5 8.9,-8.7 17.2,-18 25.7,-27.1" style="fill: rgb(255, 255, 255); fill-opacity: 1; fill-rule: nonzero; stroke: rgba(186, 218, 85, 0);" id="path68"/>
    </g>
  </g>
</svg>
